# AST/ASF file generated using VICON BodyLanguage
# -----------------------------------------------
:version 1.10
:name VICON
:units
  mass 1.0
  length 0.45
  angle deg
:documentation
   .ast/.asf automatically generated from VICON data using
   VICON BodyBuilder and BodyLanguage model FoxedUp or BRILLIANT.MOD
:root
   order TX TY TZ RX RY RZ
   axis XYZ
   position 0 0 0  
   orientation 0 0 0 
:bonedata
  begin
     id 1 
     name lhipjoint
     direction 0.63403 -0.759788 0.143974 
     length 2.51904 
     axis 0 0 0  XYZ
  end
  begin
     id 2 
     name lfemur
     direction 0.34202 -0.939693 0  
     length 7.42313  
     axis 0 0 20  XYZ
    dof rx ry rz
    limits (-160.0 20.0)
           (-70.0 70.0)
           (-60.0 70.0)
  end
  begin
     id 3 
     name ltibia
     direction 0.34202 -0.939693 0   
     length 8.10141   
     axis 0 0 20   XYZ
    dof rx
    limits (-10.0 170.0)
  end
  begin
     id 4 
     name lfoot
     direction 0.0927455 -0.254816 0.962532   
     length 2.14078   
     axis -90 7.62852e-016 20   XYZ
    dof rx rz
    limits (-45.0 90.0)
           (-70.0 20.0)
  end
  begin
     id 5 
     name ltoes
     direction 1.53556e-011 -4.21949e-011 1   
     length 1.07182   
     axis -90 7.62852e-016 20   XYZ
    dof rx
    limits (-90.0 20.0)
  end
  begin
     id 6 
     name rhipjoint
     direction -0.659892 -0.738223 0.139888   
     length 2.59263  
     axis 0 0 0  XYZ 
  end
  begin
     id 7 
     name rfemur
     direction -0.34202 -0.939693 0   
     length 7.58575   
     axis 0 0 -20   XYZ
    dof rx ry rz
    limits (-160.0 20.0)
           (-70.0 70.0)
           (-70.0 60.0)
  end
  begin
     id 8 
     name rtibia
     direction -0.34202 -0.939693 0   
     length 8.19358   
     axis 0 0 -20   XYZ
    dof rx
    limits (-10.0 170.0)
 end
 begin
     id 9 
     name rfoot
     direction -0.0856543 -0.235333 0.968133   
     length 2.13415  
     axis -90 -7.62852e-016 -20   XYZ
    dof rx rz
    limits (-45.0 90.0)
           (-20.0 70.0)
  end
  begin
     id 10 
     name rtoes
     direction -1.53551e-011 -4.21811e-011 1   
     length 1.07055   
     axis -90 -7.62852e-016 -20   XYZ
    dof rx
    limits (-90.0 20.0)
  end
  begin
     id 11 
     name lowerback
     direction 0.025219 0.998394 -0.0507326   
     length 1.91844   
     axis 0 0 0   XYZ
    dof rx ry rz
    limits (-20.0 45.0)
           (-30.0 30.0)
           (-30.0 30.0)
  end
  begin
     id 12 
     name upperback
     direction 0.0213103 0.99967 -0.0143101   
     length 1.92246   
     axis 0 0 0   XYZ
    dof rx ry rz
    limits (-20.0 45.0)
           (-30.0 30.0)
           (-30.0 30.0)
  end
  begin
     id 13 
     name thorax
     direction 0.00920974 0.99991 0.00971518   
     length 1.92239   
     axis 0 0 0   XYZ
    dof rx ry rz
    limits (-20.0 45.0)
           (-30.0 30.0)
           (-30.0 30.0)
  end
  begin
     id 14 
     name lowerneck
     direction 0.0598257 0.997249 0.0437612   
     length 3.13679   
     axis 0 0 0   XYZ
    dof rx ry rz
    limits (-20.0 45.0)
           (-30.0 30.0)
           (-30.0 30.0)
  end
  begin
     id 15 
     name upperneck
     direction -0.035342 0.999338 0.00863891   
     length 3.16283   
     axis 0 0 0   XYZ
    dof rx ry rz
    limits (-20.0 45.0)
           (-30.0 30.0)
           (-30.0 30.0)
  end
  begin
     id 16
     name head
     direction 0.37144 0.811566 0.450991  
     length 1.2838  
     axis 0 0 0   XYZ
    dof rx ry rz
    limits (-20.0 45.0)
           (-30.0 30.0)
           (-30.0 30.0)
  end
  begin
     id 17 
     name lclavicle
     direction 0.961094 0.274654 -0.0293862  
     length 3.63466  
     axis 0 0 0   XYZ
    dof ry rz
    limits (-20.0 10.0)
           (0.0 20.0)
  end
  begin
     id 18 
     name lhumerus
     direction 1 -4.48963e-011 1.10303e-027   
     length 5.12842   
     axis 180 -30 -90   XYZ
    dof rx ry rz
    limits (-60.0 90.0)
           (-90.0 90.0)
           (-90.0 90.0)
  end
  begin
     id 19
     name lradius
     direction 1 -4.48968e-011 4.13199e-027   
     length 3.47396   
     axis 180 -30 -90   XYZ
    dof rx
    limits (-10.0 170.0)
  end
  begin
     id 20
     name lwrist
     direction 1 -4.48948e-011 9.12708e-027   
     length 1.73698   
     axis -6.84618e-015 90 90   XYZ
    dof ry
    limits (-180.0 0.0)
 end
  begin
     id 21 
     name lhand
     direction 1 -4.49057e-011 1.82749e-026   
     length 0.728607   
     axis -1.16502e-014 90 90   XYZ
    dof rx rz
    limits (-90.0 90.0)
           (-45.0 45.0)
  end
  begin
     id 22 
     name lfingers
     direction 1 -4.48912e-011 3.64949e-026   
     length 0.587422   
     axis -2.33008e-014 90 90   XYZ
    dof rx
    limits (0.0 90.0)
  end
  begin
     id 23
     name lthumb
     direction 0.707107 -6.34995e-011 0.707107   
     length 0.843424   
     axis -90 45 5.69224e-014   XYZ
    dof rx rz
    limits (-45.0 45.0)
           (-45.0 45.0)
  end
  begin
     id 24 
     name rclavicle
     direction -0.90514 0.421881 -0.0523369   
     length 3.57139  
     axis 0 0 0   XYZ 
    dof ry rz
    limits (-10.0 20.0)
           (-20.0 0.0)
  end
  begin
     id 25 
     name rhumerus
     direction -1 -4.48954e-011 -1.76662e-027  
     length 5.48477   
     axis 180 30 90   XYZ
    dof rx ry rz
    limits (-90.0 60.0)
           (-90.0 90.0)
           (-90.0 90.0)
  end
  begin
     id 26 
     name rradius
     direction -1 -4.48982e-011 1.26841e-027   
     length 3.47856   
     axis 180 30 90   XYZ
    dof rx
    limits (-10.0 170.0)
  end
  begin
     id 27 
     name rwrist
     direction -1 -4.49037e-011 9.13554e-027   
     length 1.73928   
     axis -6.84618e-015 -90 -90   XYZ
    dof ry
    limits (-180.0 0.0)
  end
  begin
     id 28
     name rhand
     direction -1 -4.48871e-011 1.82397e-026   
     length 0.709974   
     axis -1.16502e-014 -90 -90   XYZ
    dof rx rz
    limits (-90.0 90.0)
           (-45.0 45.0)
  end
  begin
     id 29
     name rfingers
     direction -1 -4.48994e-011 3.65258e-026   
     length 0.572399   
     axis -2.33008e-014 -90 -90   XYZ
    dof rx
    limits (0.0 90.0)
  end
  begin
     id 30
     name rthumb
     direction -0.707107 -6.34861e-011 0.707107   
     length 0.821855   
     axis -90 -45 -5.69224e-014   XYZ
    dof rx rz
    limits (-45.0 45.0)
           (-45.0 45.0)
  end
:hierarchy
  begin
    root lhipjoint rhipjoint lowerback
    lhipjoint lfemur
    lfemur ltibia
    ltibia lfoot
    lfoot ltoes
    rhipjoint rfemur
    rfemur rtibia
    rtibia rfoot
    rfoot rtoes
    lowerback upperback
    upperback thorax
    thorax lowerneck lclavicle rclavicle
    lowerneck upperneck
    upperneck head
    lclavicle lhumerus
    lhumerus lradius
    lradius lwrist
    lwrist lhand lthumb
    lhand lfingers
    rclavicle rhumerus
    rhumerus rradius
    rradius rwrist
    rwrist rhand rthumb
    rhand rfingers
  end

#!OML:ASF F:\VICON\USERDATA\INSTALL\Justin1\Justin1.ASF
:FULLY-SPECIFIED
:DEGREES
3665
root -0.0467971 18.2276 -3.60764 2.8378 3.19832 -2.78408
lowerback 1.17743 -0.0220629 1.45174
upperback -2.93711 0.0809838 1.99188
thorax -3.68263 0.0305546 1.23363
lowerneck -16.9499 -4.13316 -4.29156
upperneck 18.7765 -4.36796 -0.919571
head 8.74777 -2.46411 -0.15128
rclavicle 1.27968e-015 3.97569e-015
rhumerus 59.9248 61.3402 1.40712
rradius 114.569
rwrist -13.7345
rhand -0.853124 30.9027
rfingers 7.12502
rthumb 24.773 2.48703
lclavicle 1.27968e-015 3.97569e-015
lhumerus 45.2398 -40.9017 30.6236
lradius 83.6239
lwrist 2.9751
lhand -12.2282 15.3625
lfingers 7.12502
lthumb 13.8371 44.8823
rfemur -13.7308 4.99814 27.6165
rtibia 32.7647
rfoot -18.5826 -17.8208
rtoes 28.2008
lfemur -13.9238 -10.0852 -18.2073
ltibia 29.28
lfoot -16.5215 6.64977
ltoes 6.66341
3666
root -0.0461219 18.2275 -3.60704 2.84342 3.17151 -2.78084
lowerback 1.14826 -0.0760923 1.5077
upperback -2.93243 0.00944975 1.99035
thorax -3.66054 -0.00671051 1.20369
lowerneck -17.1799 -4.03114 -4.06108
upperneck 18.8989 -4.2293 -1.12876
head 8.81799 -2.40597 -0.248187
rclavicle -3.13086e-015 -3.37934e-014
rhumerus 58.2196 59.8001 -1.03343
rradius 116.064
rwrist -15.6479
rhand -1.57523 30.7628
rfingers 7.12502
rthumb 24.0807 2.25383
lclavicle -3.13086e-015 -3.37934e-014
lhumerus 46.3704 -41.898 28.3595
lradius 82.66
lwrist 2.43368
lhand -12.1271 15.1513
lfingers 7.12502
lthumb 13.9346 44.6644
rfemur -13.7416 5.02299 27.6105
rtibia 32.7801
rfoot -18.5857 -17.8578
rtoes 28.0864
lfemur -13.9197 -10.1303 -18.2044
ltibia 29.2552
lfoot -16.4758 6.60525
ltoes 7.14809
3667
root -0.0439507 18.2273 -3.60556 2.81896 3.17158 -2.78698
lowerback 1.09537 -0.173723 1.62435
upperback -2.92989 -0.119104 1.99245
thorax -3.62709 -0.0740427 1.14576
lowerneck -17.2201 -3.86864 -3.9875
upperneck 18.9418 -4.01528 -1.15982
head 8.83437 -2.30404 -0.244665
rclavicle -9.10682e-015 -1.27222e-014
rhumerus 56.5582 58.133 -3.64801
rradius 117.274
rwrist -17.8193
rhand -2.38847 30.263
rfingers 7.12502
rthumb 23.3008 1.65305
lclavicle -9.10682e-015 -1.27222e-014
lhumerus 47.4923 -42.9956 25.9073
lradius 82.1431
lwrist 2.28832
lhand -11.8367 15.0859
lfingers 7.12502
lthumb 14.2143 44.5796
rfemur -13.7198 4.89907 27.6062
rtibia 32.7966
rfoot -18.6161 -17.7557
rtoes 28.011
lfemur -13.8957 -10.1583 -18.2059
ltibia 29.2566
lfoot -16.4866 6.54304
ltoes 7.25206
3668
root -0.0416616 18.2273 -3.60485 2.84472 3.18136 -2.71584
lowerback 1.03965 -0.301532 1.6491
upperback -2.96782 -0.290175 1.98273
thorax -3.63368 -0.16028 1.12903
lowerneck -17.1421 -3.68756 -3.83835
upperneck 18.8755 -3.77875 -1.30041
head 8.78815 -2.19705 -0.283853
rclavicle 5.30507e-015 -2.06736e-014
rhumerus 54.7782 56.3202 -6.53666
rradius 118.082
rwrist -19.8608
rhand -3.05725 30.1809
rfingers 7.12502
rthumb 22.659 1.49105
lclavicle 5.30507e-015 -2.06736e-014
lhumerus 48.5376 -44.1931 23.3998
lradius 82.0013
lwrist 2.07958
lhand -11.5637 14.5702
lfingers 7.12502
lthumb 14.4774 44.0451
rfemur -13.7549 4.82161 27.5099
rtibia 32.8249
rfoot -18.6691 -17.6232
rtoes 28.1226
lfemur -13.9115 -10.0876 -18.2948
ltibia 29.2654
lfoot -16.4841 6.49257
ltoes 6.82594
3669
root -0.0409279 18.2254 -3.60816 2.90444 3.12974 -2.78179
lowerback 0.975984 -0.366208 1.74208
upperback -2.98026 -0.373949 2.03363
thorax -3.61043 -0.203874 1.13249
lowerneck -17.1604 -3.55341 -3.727
upperneck 18.7712 -3.59339 -1.4361
head 8.74856 -2.11566 -0.323333
rclavicle -1.50331e-015 -4.37326e-015
rhumerus 52.8058 54.439 -9.50266
rradius 118.469
rwrist -21.5435
rhand -4.31045 30.5476
rfingers 7.12502
rthumb 21.4558 1.71578
lclavicle -1.50331e-015 -4.37326e-015
lhumerus 49.7517 -45.4586 20.8152
lradius 82.1659
lwrist 1.61906
lhand -11.5144 13.466
lfingers 7.12502
lthumb 14.525 42.9375
rfemur -13.8541 4.84657 27.5697
rtibia 32.8453
rfoot -18.6646 -17.57
rtoes 28.5062
lfemur -14.0053 -9.9995 -18.2107
ltibia 29.2972
lfoot -16.4608 6.43667
ltoes 6.53838
3670
root -0.0399536 18.2248 -3.61297 2.92737 3.02539 -2.80662
lowerback 0.997608 -0.393403 1.79484
upperback -2.97307 -0.407636 2.05552
thorax -3.61533 -0.221864 1.12704
lowerneck -17.319 -3.4327 -3.57089
upperneck 18.7669 -3.43713 -1.54362
head 8.76848 -2.04274 -0.368208
rclavicle -1.77912e-014 9.14409e-015
rhumerus 50.7981 52.4255 -12.4864
rradius 118.535
rwrist -22.7584
rhand -5.95908 30.6053
rfingers 7.12502
rthumb 19.8717 1.60119
lclavicle -1.77912e-014 9.14409e-015
lhumerus 51.4032 -46.7548 17.8285
lradius 82.6719
lwrist 1.49984
lhand -11.4092 13.182
lfingers 7.12502
lthumb 14.6263 42.6462
rfemur -13.9268 4.9306 27.5875
rtibia 32.8716
rfoot -18.6106 -17.6222
rtoes 28.2548
lfemur -14.0465 -10.0291 -18.1813
ltibia 29.2924
lfoot -16.4029 6.55304
ltoes 6.15618
3671
root -0.0388855 18.225 -3.61574 2.91692 2.92349 -2.80334
lowerback 1.04385 -0.442533 1.82153
upperback -2.95853 -0.471314 2.06054
thorax -3.62628 -0.254338 1.12024
lowerneck -17.4986 -3.2884 -3.35426
upperneck 18.8508 -3.26022 -1.66532
head 8.82109 -1.95839 -0.426541
rclavicle 2.03754e-015 1.59028e-015
rhumerus 49.0204 50.2193 -15.3399
rradius 118.295
rwrist -23.6226
rhand -7.5321 30.3599
rfingers 7.12502
rthumb 18.359 1.20624
lclavicle 2.03754e-015 1.59028e-015
lhumerus 53.3586 -47.947 14.5296
lradius 83.496
lwrist 2.02219
lhand -10.6409 13.4527
lfingers 7.12502
lthumb 15.3664 42.8616
rfemur -13.9268 4.99396 27.5815
rtibia 32.8667
rfoot -18.5362 -17.6666
rtoes 27.7569
lfemur -14.0254 -10.0846 -18.1994
ltibia 29.2862
lfoot -16.3659 6.73049
ltoes 5.65159
3672
root -0.0389608 18.2276 -3.61259 2.85275 2.81157 -2.72624
lowerback 1.04363 -0.491724 1.71086
upperback -2.91847 -0.541285 2.06696
thorax -3.58296 -0.285821 1.19129
lowerneck -17.6143 -3.15641 -3.08546
upperneck 18.9082 -3.10226 -1.86055
head 8.85179 -1.88699 -0.51921
rclavicle -1.98785e-014 -2.06736e-014
rhumerus 47.4598 48.0664 -17.9998
rradius 117.749
rwrist -24.242
rhand -8.79475 30.2401
rfingers 7.12502
rthumb 17.144 0.976472
lclavicle -1.98785e-014 -2.06736e-014
lhumerus 55.283 -49.1465 11.3159
lradius 84.5222
lwrist 2.92151
lhand -9.4334 13.199
lfingers 7.12502
lthumb 16.5292 42.515
rfemur -13.8295 5.09723 27.4989
rtibia 32.8542
rfoot -18.5742 -17.6433
rtoes 27.8843
lfemur -13.8879 -10.1238 -18.3133
ltibia 29.2488
lfoot -16.354 6.84297
ltoes 5.95956
3673
root -0.0394682 18.2282 -3.60735 2.80346 2.6734 -2.73077
lowerback 1.00592 -0.529256 1.66561
upperback -2.88993 -0.593919 2.09479
thorax -3.53086 -0.310238 1.24669
lowerneck -17.69 -3.06775 -2.94313
upperneck 18.9707 -3.00492 -1.90589
head 8.88275 -1.8368 -0.547502
rclavicle -4.09993e-016 -1.66979e-014
rhumerus 46.118 46.0729 -20.4457
rradius 116.996
rwrist -24.1004
rhand -10.7271 30.0628
rfingers 7.12502
rthumb 15.2834 0.647429
lclavicle -4.09993e-016 -1.66979e-014
lhumerus 57.2376 -50.3188 8.17946
lradius 85.6383
lwrist 3.88551
lhand -8.75486 13.1632
lfingers 7.12502
lthumb 17.1824 42.4235
rfemur -13.7296 5.23417 27.5078
rtibia 32.8182
rfoot -18.6092 -17.6227
rtoes 28.1075
lfemur -13.7766 -10.071 -18.3302
ltibia 29.2277
lfoot -16.3904 6.89965
ltoes 6.42663
3674
root -0.0352998 18.2288 -3.60547 2.80567 2.51426 -2.77621
lowerback 0.996264 -0.537262 1.7282
upperback -2.88821 -0.602207 2.12861
thorax -3.52399 -0.315607 1.2467
lowerneck -17.7677 -2.98462 -2.82035
upperneck 18.9348 -2.90992 -1.9568
head 8.88083 -1.78873 -0.57351
rclavicle 6.59717e-015 -8.34896e-015
rhumerus 44.9625 44.1308 -22.5632
rradius 116.039
rwrist -23.1967
rhand -12.9773 29.1228
rfingers 7.12502
rthumb 13.1151 -0.444804
lclavicle 6.59717e-015 -8.34896e-015
lhumerus 59.2434 -51.4032 5.18239
lradius 86.8151
lwrist 4.47285
lhand -8.76598 13.2684
lfingers 7.12502
lthumb 17.1717 42.5296
rfemur -13.7 5.31667 27.5297
rtibia 32.7653
rfoot -18.5091 -17.5504
rtoes 27.9506
lfemur -13.7531 -10.0013 -18.3005
ltibia 29.2185
lfoot -16.4111 6.94375
ltoes 6.44996
3675
root -0.029721 18.2287 -3.60454 2.81505 2.32125 -2.89923
lowerback 1.00098 -0.509431 1.87268
upperback -2.89691 -0.55901 2.17881
thorax -3.53728 -0.297402 1.21597
lowerneck -17.9145 -2.89941 -2.63562
upperneck 18.9167 -2.82001 -2.03661
head 8.89597 -1.74206 -0.62148
rclavicle 6.89534e-015 -7.55382e-015
rhumerus 43.9132 42.2591 -24.5035
rradius 114.769
rwrist -21.9804
rhand -14.3215 28.0119
rfingers 7.12502
rthumb 11.8191 -1.63455
lclavicle 6.89534e-015 -7.55382e-015
lhumerus 61.217 -52.3695 2.37611
lradius 88.1751
lwrist 4.69908
lhand -7.78496 12.4663
lfingers 7.12502
lthumb 18.1157 41.6427
rfemur -13.6807 5.38589 27.6303
rtibia 32.7041
rfoot -18.3091 -17.5213
rtoes 27.6218
lfemur -13.7374 -9.9234 -18.2014
ltibia 29.2389
lfoot -16.4256 7.10507
ltoes 6.28155
